<svg xmlns="http://www.w3.org/2000/svg" xmlns:xlink="http://www.w3.org/1999/xlink" width="49" height="54" fill="none" xmlns:v="https://vecta.io/nano"><path fill="#fcf1f1" d="M0 0h48.426v53.582H0z"/><path fill-rule="evenodd" d="M9.249 20.511a2.71 2.71 0 0 0-.036.439c0 .539.161 1.061.464 1.561-.303.499-.464 1.022-.464 1.561a2.71 2.71 0 0 0 .036.439v4.562a2.71 2.71 0 0 0-.036.439c0 .539.161 1.062.464 1.561-.303.499-.464 1.022-.464 1.561a2.71 2.71 0 0 0 .036.44v4.562a2.71 2.71 0 0 0-.036.439c0 3.478 6.716 6.297 15 6.297s15-2.819 15-6.297c0-.233-.03-.464-.089-.69v-4.06a2.74 2.74 0 0 0 .089-.69c0-.539-.161-1.061-.464-1.56.303-.499.464-1.022.464-1.561 0-.233-.03-.464-.089-.69v-4.06a2.74 2.74 0 0 0 .089-.69c0-.539-.161-1.062-.464-1.561.303-.499.464-1.022.464-1.561 0-.233-.03-.464-.089-.69V16.2a2.74 2.74 0 0 0 .089-.69c0-3.478-6.716-6.297-15-6.297s-15 2.819-15 6.297a2.71 2.71 0 0 0 .036.439v4.562z" fill="#dd4040"/><g fill="#fff"><ellipse cx="24.213" cy="16.029" rx="13.851" ry="5.336"/><g fill-rule="evenodd"><use xlink:href="#B"/><use xlink:href="#B" y="-8.472"/></g></g><path d="M34.041 23.024l1.256-.589m-1.19 8.782l1.256-.589m-1.289 9.417l1.256-.589" stroke="#fff" stroke-width=".805" stroke-linecap="round"/><defs ><path id="B" d="M37.635 31.737c-.431 2.31-6.276 4.14-13.423 4.14s-12.991-1.83-13.423-4.14c-.28.423-.429.866-.429 1.322 0 2.947 6.201 5.336 13.851 5.336s13.851-2.389 13.851-5.336c0-.457-.149-.9-.429-1.323z"/></defs></svg>