<svg width="56" height="57" viewBox="0 0 56 57" fill="none" xmlns="http://www.w3.org/2000/svg">
<rect y="0.698242" width="56" height="56" rx="8" fill="#EDF4FF"/>
<path d="M19.053 17.1722L27.4774 11.3005L36.8209 16.5084L36.9741 24.6776L45.6538 30.8045L45.807 39.229L36.3614 45.8665L28.0391 40.3523L19.8189 45.8154L10.2202 39.1269L10.3223 30.8045L19.053 24.7287V17.1722Z" fill="#71ACFF"/>
<path d="M19.6865 17.4097L27.6088 11.8219L36.2201 16.759L27.8002 21.9641L19.6865 17.4097Z" fill="#85B7FE"/>
<path d="M11.5147 30.7231L19.0743 25.4852L27.3794 30.7285L19.741 35.6387L11.5147 30.7231Z" fill="#85B7FE"/>
<path d="M28.7178 30.6219L36.7179 25.3321L44.7168 30.8433L36.4883 35.8187L28.7178 30.6219Z" fill="#85B7FE"/>
<path d="M19.5077 24.886L19.5828 17.9801L27.5678 22.5382L27.6444 29.9247L19.5077 24.886Z" fill="#CEE2FF"/>
<path d="M10.8987 38.8807L10.8987 31.381L19.0903 36.3958L19.229 44.6101L10.8987 38.8807Z" fill="#CEE2FF"/>
<path d="M28.4822 39.8617L28.4887 31.379L36.0379 36.3264L35.9338 44.922L28.4822 39.8617Z" fill="#CEE2FF"/>
<path d="M36.4114 24.588L36.4114 17.7975L28.2616 22.6016L28.2616 29.8281L36.4114 24.588Z" fill="#4571AF"/>
<path d="M27.5122 39.8963V31.488L20.0605 36.3263L20.2572 44.6488L27.5122 39.8963Z" fill="#4571AF"/>
<path d="M45.2928 38.9951L45.3273 31.2314L36.8106 36.3991L36.7665 44.8179L45.2928 38.9951Z" fill="#4571AF"/>
</svg>
