<svg width="56" height="56" viewBox="0 0 56 56" fill="none" xmlns="http://www.w3.org/2000/svg">
<path d="M47.7037 0H8.2963C3.71438 0 0 3.58172 0 8V48C0 52.4183 3.71438 56 8.2963 56H47.7037C52.2856 56 56 52.4183 56 48V8C56 3.58172 52.2856 0 47.7037 0Z" fill="#9CBCE2"/>
<path d="M28 14C20.818 14 15 16.7844 15 20.2222C15 23.66 20.818 26.4445 28 26.4445C35.182 26.4445 41 23.66 41 20.2222C41 16.7844 35.182 14 28 14ZM15 23.3334V28C15 31.4378 20.818 34.2222 28 34.2222C35.182 34.2222 41 31.4378 41 28V23.3334C41 26.7711 35.182 29.5555 28 29.5555C20.818 29.5555 15 26.7711 15 23.3334ZM15 31.1111V35.7778C15 39.2155 20.818 42 28 42C35.182 42 41 39.2155 41 35.7778V31.1111C41 34.5489 35.182 37.3333 28 37.3333C20.818 37.3333 15 34.5489 15 31.1111Z" fill="#115FB7"/>
</svg>
